<?xml version="1.0" encoding="utf-8"?>
<!DOCTYPE svg PUBLIC "-//W3C//DTD SVG 1.1//EN" "http://www.w3.org/Graphics/SVG/1.1/DTD/svg11.dtd">
<svg version="1.1" xmlns="http://www.w3.org/2000/svg" xmlns:xlink="http://www.w3.org/1999/xlink" x="0px" y="0px" viewBox="0 0 1000 1000" xml:space="preserve">
<g><g transform="matrix(1 0 0 -1 0 1920)"><path d="M275,930.3c-5.2,0-11,1.4-17.4,4.3c-6.4,2.9-11.3,6.4-14.7,10.6L22.5,1203.1c-3.4,4.2-6.3,9.7-8.8,16.5c-2.5,6.8-3.7,12.8-3.7,18v365c0,5.2,1.2,11.2,3.7,18c2.5,6.8,5.4,12.3,8.8,16.5l220.3,258.3c2.1,2.6,5,5.1,8.8,7.4c3.8,2.4,7.8,4.2,12,5.5c4.2,1.3,8,2,11.4,2h450c5.2,0,11-1.4,17.4-4.3c6.4-2.9,11.3-6.4,14.7-10.6l220.3-258.3c3.4-4.2,6.3-9.7,8.8-16.5c2.5-6.8,3.7-12.8,3.7-18v-365c0-5.2-1.2-11.2-3.7-18c-2.5-6.8-5.4-12.3-8.8-16.5L757.2,945.2c-0.8-1-1.8-2.2-3.1-3.3c-1.3-1.2-2.7-2.2-4.3-3.1L745,936c0,0-1.6-0.8-4.9-2.4c-3.3-1.6-5-2.2-5.1-1.8c-0.1,0.4-1.8,0-5.1-1.2c-3.3-1.2-4.9-1.3-4.9-0.4H275z M339.7,1000.9h318.7c6.3,0,12.7,1,19.4,3.1c6.7,2.1,12.9,5,18.8,8.6c5.9,3.7,10.8,7.8,14.7,12.5l188.6,216c5.8,6.5,10.5,14.7,14.1,24.5c3.7,9.8,5.5,19.1,5.5,28V1545c0,8.6-1.8,17.8-5.5,27.6c-3.7,9.8-8.4,18-14.1,24.5l-188.6,218.3c-1.6,2.1-3.5,4.1-5.7,5.9c-2.2,1.8-4.5,3.5-6.9,5.1c-2.4,1.6-4.8,3.1-7.4,4.5s-5.3,2.7-8,3.7c-2.7,1-5.5,2-8.2,2.7c-2.7,0.8-5.6,1.4-8.4,1.8c-2.9,0.4-5.6,0.6-8.2,0.6H339.7c-6.3,0-12.7-1-19.4-3.1c-6.7-2.1-12.9-5-18.8-8.6c-5.9-3.7-10.8-7.8-14.7-12.5l-187-218.3c-5.5-6.5-10.1-14.7-13.7-24.5c-3.7-9.8-5.5-19-5.5-27.6v-251.3c0-8.9,1.8-18.2,5.5-27.8c3.7-9.7,8.4-17.9,14.1-24.7l186.6-216c6-7.1,14-12.9,23.9-17.4C320.6,1003.1,330.3,1000.9,339.7,1000.9z M339.7,1055.7c-1.3,0-3.3,0.7-6.1,2c-2.7,1.3-4.5,2.5-5.3,3.5l-186.6,216c-1.6,1.6-3,4.2-4.3,7.8c-1.3,3.7-2,6.5-2,8.6V1545c0,1.3,0.3,3.1,1,5.3s1.4,4.4,2.4,6.5c0.9,2.1,1.9,3.7,2.9,4.7l186.6,218c1,1,2.9,2.2,5.5,3.5c2.6,1.3,4.6,2,5.9,2h318.7c1.3,0,3.3-0.6,6.1-1.8c2.7-1.2,4.5-2.4,5.3-3.7l188.6-218c1.6-1.6,3-4.2,4.3-7.8c1.3-3.7,2-6.5,2-8.6v-251.3c0-2.1-0.7-5-2-8.6c-1.3-3.7-2.7-6.3-4.3-7.8l-188.2-216c-0.5-0.8-1.6-1.6-3.1-2.4c-1.6-0.8-3.2-1.5-4.9-2.2c-1.7-0.7-2.9-1-3.7-1H339.7z"/></g></g>
</svg>
